<svg width="179" height="31" viewBox="0 0 179 31" fill="none" xmlns="http://www.w3.org/2000/svg">
<path d="M25.2656 1.25H32.2344C33.5365 1.27083 34.6979 1.54167 35.7188 2.0625C36.7396 2.57292 37.5052 3.3125 38.0156 4.28125C38.526 5.25 38.6667 6.42708 38.4375 7.8125C38.25 8.9375 37.8646 9.91667 37.2812 10.75C36.6979 11.5833 35.974 12.276 35.1094 12.8281C34.2448 13.3698 33.2917 13.7865 32.25 14.0781L31.7344 14.2656H23.2188L23.3125 13.4219H30.8594C31.9635 13.401 32.9844 13.151 33.9219 12.6719C34.8698 12.1927 35.6667 11.5365 36.3125 10.7031C36.9583 9.86979 37.3854 8.90625 37.5938 7.8125C37.8125 6.59375 37.7031 5.5625 37.2656 4.71875C36.8385 3.875 36.1771 3.23438 35.2812 2.79688C34.3958 2.34896 33.3802 2.11458 32.2344 2.09375H25.9688L22.1719 24H21.3438L25.2656 1.25ZM35.7031 24L31.3438 13.9531L32.2812 13.9219L36.5938 23.7812L36.5625 24H35.7031Z" fill="black"/>
<path d="M52.1406 20.8281L53.6406 12.0938C53.8073 11.1354 53.7292 10.3229 53.4062 9.65625C53.0938 8.98958 52.599 8.48438 51.9219 8.14062C51.2448 7.79688 50.4375 7.625 49.5 7.625C48.6354 7.625 47.7812 7.78646 46.9375 8.10938C46.1042 8.42188 45.375 8.88542 44.75 9.5C44.125 10.1042 43.7083 10.849 43.5 11.7344L42.6562 11.7031C42.8125 10.9219 43.1094 10.2292 43.5469 9.625C43.9948 9.01042 44.5365 8.49479 45.1719 8.07812C45.8073 7.66146 46.4948 7.34375 47.2344 7.125C47.9844 6.89583 48.7396 6.78125 49.5 6.78125C50.5833 6.78125 51.5312 6.99479 52.3438 7.42188C53.1562 7.83854 53.7552 8.44792 54.1406 9.25C54.5365 10.0417 54.6458 11 54.4688 12.125L53.0156 20.5938C52.9219 21.125 52.849 21.6667 52.7969 22.2188C52.7552 22.7708 52.7812 23.3177 52.875 23.8594L52.8594 24H51.9062C51.8646 23.4688 51.8698 22.9375 51.9219 22.4062C51.974 21.875 52.0469 21.349 52.1406 20.8281ZM53.5781 14.5625L53.5 15.4219H49.2812C48.5521 15.4323 47.7812 15.5104 46.9688 15.6562C46.1562 15.7917 45.375 16.026 44.625 16.3594C43.875 16.6823 43.2292 17.125 42.6875 17.6875C42.1562 18.2396 41.8073 18.9375 41.6406 19.7812C41.5052 20.5312 41.5885 21.1823 41.8906 21.7344C42.1927 22.2865 42.6354 22.7135 43.2188 23.0156C43.8021 23.3177 44.4427 23.474 45.1406 23.4844C46.2552 23.4948 47.2865 23.3021 48.2344 22.9062C49.1927 22.5 50.0521 21.9427 50.8125 21.2344C51.5729 20.5156 52.2188 19.6823 52.75 18.7344L53.0156 19.5469C52.6406 20.276 52.1771 20.9375 51.625 21.5312C51.0729 22.125 50.4531 22.6302 49.7656 23.0469C49.0781 23.4531 48.3438 23.7656 47.5625 23.9844C46.7917 24.2031 45.9896 24.3125 45.1562 24.3125C44.2604 24.3021 43.4583 24.1146 42.75 23.75C42.0417 23.375 41.5052 22.8438 41.1406 22.1562C40.776 21.4688 40.6667 20.6562 40.8125 19.7188C40.9688 18.75 41.3333 17.9375 41.9062 17.2812C42.4792 16.625 43.1719 16.099 43.9844 15.7031C44.8073 15.3073 45.6771 15.0208 46.5938 14.8438C47.5104 14.6667 48.3854 14.5729 49.2188 14.5625H53.5781Z" fill="black"/>
<path d="M60.875 10.3438L57.3906 30.5H56.5469L60.5781 7.09375H61.4219L60.875 10.3438ZM71.75 15.375L71.6875 15.7031C71.5208 16.6823 71.2448 17.6771 70.8594 18.6875C70.4844 19.6979 69.9896 20.6302 69.375 21.4844C68.7604 22.3281 68.0156 23.0104 67.1406 23.5312C66.276 24.0521 65.2656 24.3125 64.1094 24.3125C63.401 24.3125 62.7031 24.1979 62.0156 23.9688C61.3385 23.7292 60.724 23.3906 60.1719 22.9531C59.6302 22.5052 59.2031 21.9688 58.8906 21.3438C58.5885 20.7188 58.4583 20.0156 58.5 19.2344L59.6562 12.3594C59.8854 11.5677 60.2396 10.8385 60.7188 10.1719C61.1979 9.49479 61.7656 8.90104 62.4219 8.39062C63.0885 7.88021 63.8073 7.48438 64.5781 7.20312C65.3594 6.92188 66.1562 6.78125 66.9688 6.78125C68.1458 6.78125 69.0885 7.05208 69.7969 7.59375C70.5052 8.125 71.0208 8.82292 71.3438 9.6875C71.6771 10.5521 71.8646 11.4844 71.9062 12.4844C71.9479 13.4844 71.8958 14.4479 71.75 15.375ZM70.8281 15.7031L70.8906 15.375C71.026 14.5938 71.0885 13.7552 71.0781 12.8594C71.0781 11.9635 70.9531 11.1198 70.7031 10.3281C70.4635 9.53646 70.0469 8.89062 69.4531 8.39062C68.8594 7.88021 68.0365 7.625 66.9844 7.625C66.2135 7.625 65.4635 7.76042 64.7344 8.03125C64.0156 8.30208 63.349 8.67708 62.7344 9.15625C62.1302 9.63542 61.6042 10.1979 61.1562 10.8438C60.7083 11.4792 60.3802 12.1719 60.1719 12.9219L59.1094 18.8438C59.0469 19.8021 59.2552 20.6302 59.7344 21.3281C60.2135 22.0156 60.8438 22.5469 61.625 22.9219C62.4167 23.2865 63.2448 23.4688 64.1094 23.4688C65.151 23.4688 66.0521 23.2344 66.8125 22.7656C67.5833 22.2865 68.2344 21.6615 68.7656 20.8906C69.3073 20.1198 69.7448 19.2812 70.0781 18.375C70.4115 17.4688 70.6615 16.5781 70.8281 15.7031Z" fill="black"/>
<path d="M78.6562 7.09375L75.75 24H74.9062L77.8125 7.09375H78.6562ZM78.3125 1.78125C78.3438 1.57292 78.4531 1.38021 78.6406 1.20312C78.8385 1.02604 79.0469 0.9375 79.2656 0.9375C79.5052 0.9375 79.6979 1.03125 79.8438 1.21875C80 1.40625 80.0573 1.61458 80.0156 1.84375C79.9844 2.05208 79.8698 2.24479 79.6719 2.42188C79.474 2.58854 79.2656 2.67188 79.0469 2.67188C78.8177 2.67188 78.625 2.58333 78.4688 2.40625C78.3229 2.21875 78.2708 2.01042 78.3125 1.78125Z" fill="black"/>
<path d="M92.6562 20.7188L96.2344 0H97.0781L92.9375 24H92.0938L92.6562 20.7188ZM81.7812 15.7031L81.8281 15.375C82.0052 14.375 82.2812 13.3698 82.6562 12.3594C83.0417 11.349 83.5417 10.4219 84.1562 9.57812C84.7708 8.73438 85.5156 8.05729 86.3906 7.54688C87.2656 7.03646 88.2812 6.78125 89.4375 6.78125C90.2083 6.78125 90.9271 6.92188 91.5938 7.20312C92.2708 7.48438 92.8594 7.88021 93.3594 8.39062C93.8594 8.89062 94.2448 9.47917 94.5156 10.1562C94.7865 10.8333 94.9062 11.5677 94.875 12.3594L93.7031 19.25C93.5052 20.0208 93.1615 20.7188 92.6719 21.3438C92.1823 21.9583 91.6042 22.4896 90.9375 22.9375C90.2812 23.375 89.5729 23.7135 88.8125 23.9531C88.0521 24.1927 87.2917 24.3125 86.5312 24.3125C85.3646 24.3125 84.4271 24.0417 83.7188 23.5C83.0208 22.9479 82.5052 22.2396 82.1719 21.375C81.849 20.5 81.6667 19.5625 81.625 18.5625C81.5833 17.5625 81.6354 16.6094 81.7812 15.7031ZM82.7188 15.375L82.6562 15.7031C82.5208 16.4844 82.4531 17.3229 82.4531 18.2188C82.4531 19.1146 82.5729 19.9583 82.8125 20.75C83.0521 21.5417 83.4635 22.1927 84.0469 22.7031C84.6406 23.2031 85.4583 23.4583 86.5 23.4688C87.4479 23.4688 88.3802 23.2812 89.2969 22.9062C90.224 22.5312 91.0417 22 91.75 21.3125C92.4583 20.6146 92.9531 19.7969 93.2344 18.8594L94.2969 12.9219C94.349 12.1823 94.2656 11.4896 94.0469 10.8438C93.8281 10.1979 93.4948 9.63542 93.0469 9.15625C92.6094 8.67708 92.0833 8.30208 91.4688 8.03125C90.8542 7.76042 90.1771 7.625 89.4375 7.625C88.4062 7.625 87.5052 7.86458 86.7344 8.34375C85.9635 8.8125 85.3073 9.43229 84.7656 10.2031C84.224 10.9635 83.7865 11.7969 83.4531 12.7031C83.1198 13.6094 82.875 14.5 82.7188 15.375Z" fill="black"/>
<path d="M109.594 1.25V24H104.516V1.25H109.594ZM116.516 1.25V5.20312H97.7344V1.25H116.516Z" fill="black"/>
<path d="M125.234 19.9688V12.7188C125.234 12.2083 125.156 11.7708 125 11.4062C124.844 11.0417 124.599 10.7552 124.266 10.5469C123.932 10.3385 123.5 10.2344 122.969 10.2344C122.521 10.2344 122.13 10.3125 121.797 10.4688C121.474 10.625 121.224 10.849 121.047 11.1406C120.88 11.4323 120.797 11.7917 120.797 12.2188H115.922C115.922 11.4583 116.094 10.75 116.438 10.0938C116.781 9.4375 117.271 8.85938 117.906 8.35938C118.552 7.85938 119.323 7.47396 120.219 7.20312C121.115 6.92188 122.12 6.78125 123.234 6.78125C124.557 6.78125 125.734 7.00521 126.766 7.45312C127.807 7.89062 128.63 8.55208 129.234 9.4375C129.839 10.3125 130.141 11.4167 130.141 12.75V19.8281C130.141 20.849 130.198 21.651 130.312 22.2344C130.438 22.8073 130.615 23.3073 130.844 23.7344V24H125.922C125.693 23.5104 125.521 22.9062 125.406 22.1875C125.292 21.4583 125.234 20.7188 125.234 19.9688ZM125.844 13.6875L125.875 16.375H123.453C122.911 16.375 122.443 16.4427 122.047 16.5781C121.661 16.7135 121.349 16.901 121.109 17.1406C120.87 17.3698 120.693 17.6406 120.578 17.9531C120.474 18.2552 120.422 18.5885 120.422 18.9531C120.422 19.2969 120.505 19.6094 120.672 19.8906C120.839 20.1615 121.068 20.375 121.359 20.5312C121.651 20.6875 121.99 20.7656 122.375 20.7656C123.01 20.7656 123.552 20.6406 124 20.3906C124.458 20.1406 124.812 19.8385 125.062 19.4844C125.312 19.1198 125.438 18.7812 125.438 18.4688L126.609 20.5C126.422 20.9167 126.193 21.349 125.922 21.7969C125.651 22.2344 125.307 22.6458 124.891 23.0312C124.474 23.4062 123.969 23.7135 123.375 23.9531C122.792 24.1927 122.089 24.3125 121.266 24.3125C120.203 24.3125 119.24 24.099 118.375 23.6719C117.51 23.2344 116.818 22.6354 116.297 21.875C115.786 21.1146 115.531 20.2396 115.531 19.25C115.531 18.3646 115.693 17.5781 116.016 16.8906C116.339 16.2031 116.823 15.6198 117.469 15.1406C118.125 14.6615 118.948 14.3021 119.938 14.0625C120.927 13.8125 122.083 13.6875 123.406 13.6875H125.844Z" fill="black"/>
<path d="M138.484 7.09375V24H133.594V7.09375H138.484ZM133.297 2.71875C133.297 2.01042 133.547 1.43229 134.047 0.984375C134.547 0.526042 135.203 0.296875 136.016 0.296875C136.828 0.296875 137.484 0.526042 137.984 0.984375C138.495 1.43229 138.75 2.01042 138.75 2.71875C138.75 3.41667 138.495 3.99479 137.984 4.45312C137.484 4.90104 136.828 5.125 136.016 5.125C135.203 5.125 134.547 4.90104 134.047 4.45312C133.547 3.99479 133.297 3.41667 133.297 2.71875Z" fill="black"/>
<path d="M147.141 0V24H142.25V0H147.141Z" fill="black"/>
<path d="M149.953 15.7188V15.3906C149.953 14.151 150.13 13.0104 150.484 11.9688C150.839 10.9167 151.359 10.0052 152.047 9.23438C152.734 8.46354 153.578 7.86458 154.578 7.4375C155.578 7 156.724 6.78125 158.016 6.78125C159.328 6.78125 160.484 7 161.484 7.4375C162.495 7.86458 163.344 8.46354 164.031 9.23438C164.719 10.0052 165.24 10.9167 165.594 11.9688C165.948 13.0104 166.125 14.151 166.125 15.3906V15.7188C166.125 16.9479 165.948 18.0885 165.594 19.1406C165.24 20.1823 164.719 21.0938 164.031 21.875C163.344 22.6458 162.5 23.2448 161.5 23.6719C160.5 24.099 159.349 24.3125 158.047 24.3125C156.755 24.3125 155.604 24.099 154.594 23.6719C153.583 23.2448 152.734 22.6458 152.047 21.875C151.359 21.0938 150.839 20.1823 150.484 19.1406C150.13 18.0885 149.953 16.9479 149.953 15.7188ZM154.844 15.3906V15.7188C154.844 16.3854 154.896 17.0104 155 17.5938C155.115 18.1771 155.297 18.6875 155.547 19.125C155.797 19.5625 156.125 19.9062 156.531 20.1562C156.948 20.3958 157.453 20.5156 158.047 20.5156C158.641 20.5156 159.141 20.3958 159.547 20.1562C159.953 19.9062 160.281 19.5625 160.531 19.125C160.781 18.6875 160.958 18.1771 161.062 17.5938C161.177 17.0104 161.234 16.3854 161.234 15.7188V15.3906C161.234 14.7344 161.177 14.1198 161.062 13.5469C160.958 12.9635 160.781 12.4479 160.531 12C160.281 11.5521 159.948 11.2031 159.531 10.9531C159.125 10.7031 158.62 10.5781 158.016 10.5781C157.432 10.5781 156.938 10.7031 156.531 10.9531C156.125 11.2031 155.797 11.5521 155.547 12C155.297 12.4479 155.115 12.9635 155 13.5469C154.896 14.1198 154.844 14.7344 154.844 15.3906Z" fill="black"/>
<path d="M173.578 11.0312V24H168.703V7.09375H173.281L173.578 11.0312ZM178.625 6.96875L178.547 11.5156C178.339 11.4844 178.068 11.4583 177.734 11.4375C177.401 11.4062 177.115 11.3906 176.875 11.3906C176.25 11.3906 175.708 11.4688 175.25 11.625C174.802 11.7708 174.427 11.9896 174.125 12.2812C173.833 12.5729 173.615 12.9375 173.469 13.375C173.323 13.8021 173.25 14.2969 173.25 14.8594L172.328 14.4062C172.328 13.2917 172.438 12.2708 172.656 11.3438C172.875 10.4167 173.193 9.61458 173.609 8.9375C174.026 8.25 174.536 7.71875 175.141 7.34375C175.745 6.96875 176.432 6.78125 177.203 6.78125C177.453 6.78125 177.708 6.79688 177.969 6.82812C178.229 6.85938 178.448 6.90625 178.625 6.96875Z" fill="black"/>
<path d="M0 21H14V22H0V21Z" fill="black"/>
<path d="M4 13H17V14H4V13Z" fill="black"/>
<path d="M7 5H21V6H7V5Z" fill="black"/>
</svg>
