<svg width="15" height="15" viewBox="0 0 15 15" fill="none" xmlns="http://www.w3.org/2000/svg">
<g opacity="0.5">
<path d="M2.36322 0V4.93225H1.67979V0H2.36322ZM4.04661 0V0.53523H0V0H4.04661Z" fill="black"/>
<path d="M5.97819 5C5.70722 5 5.46142 4.95709 5.24081 4.87127C5.02259 4.7832 4.83435 4.66012 4.67608 4.50203C4.52021 4.34395 4.40031 4.1565 4.31638 3.9397C4.23245 3.7229 4.19049 3.48577 4.19049 3.22832V3.08604C4.19049 2.78794 4.23725 2.52258 4.33077 2.28997C4.42429 2.0551 4.55139 1.85637 4.71205 1.69377C4.87272 1.53117 5.05496 1.40808 5.25879 1.32453C5.46262 1.24097 5.67365 1.19919 5.89186 1.19919C6.17003 1.19919 6.40983 1.24435 6.61126 1.33469C6.81509 1.42502 6.98175 1.55149 7.11124 1.71409C7.24073 1.87444 7.33665 2.06414 7.399 2.2832C7.46135 2.5 7.49252 2.73713 7.49252 2.99458V3.27575H4.58616V2.76423H6.82708V2.7168C6.81749 2.5542 6.78152 2.39612 6.71917 2.24255C6.65922 2.08898 6.5633 1.96251 6.43141 1.86314C6.29952 1.76378 6.11967 1.71409 5.89186 1.71409C5.74079 1.71409 5.60171 1.74458 5.47461 1.80556C5.34752 1.86427 5.23841 1.95235 5.14729 2.06978C5.05616 2.18722 4.98542 2.33062 4.93507 2.5C4.88471 2.66938 4.85953 2.86472 4.85953 3.08604V3.22832C4.85953 3.40221 4.88471 3.56594 4.93507 3.71951C4.98782 3.87082 5.06336 4.00407 5.16167 4.11924C5.26239 4.23442 5.38349 4.32475 5.52497 4.39024C5.66885 4.45574 5.83191 4.48848 6.01416 4.48848C6.24916 4.48848 6.4482 4.44332 6.61126 4.35298C6.77432 4.26265 6.917 4.14182 7.0393 3.99051L7.44216 4.29201C7.35823 4.4117 7.25152 4.52575 7.12203 4.63415C6.99254 4.74255 6.83307 4.83062 6.64363 4.89837C6.45659 4.96612 6.23478 5 5.97819 5Z" fill="black"/>
<path d="M8.71909 1.26694L9.57158 2.60163L10.4349 1.26694H11.2154L9.94207 3.07588L11.255 4.93225H10.4852L9.58597 3.55691L8.68672 4.93225H7.91337L9.22267 3.07588L7.95294 1.26694H8.71909Z" fill="black"/>
<path d="M13.5534 1.26694V1.74797H11.4492V1.26694H13.5534ZM12.1614 0.376016H12.8269V4.02439C12.8269 4.1486 12.8472 4.24232 12.888 4.30556C12.9288 4.36879 12.9815 4.41057 13.0463 4.43089C13.111 4.45122 13.1806 4.46138 13.2549 4.46138C13.31 4.46138 13.3676 4.45687 13.4275 4.44783C13.4899 4.43654 13.5367 4.42751 13.5678 4.42073L13.5714 4.93225C13.5187 4.94806 13.4491 4.96274 13.3628 4.97629C13.2789 4.9921 13.177 5 13.0571 5C12.894 5 12.7441 4.96951 12.6074 4.90854C12.4708 4.84756 12.3616 4.74594 12.2801 4.60366C12.201 4.45912 12.1614 4.26491 12.1614 4.021V0.376016Z" fill="black"/>
<path d="M8.98112 4.28571H10.3202V4.94773H8.98112V4.28571ZM6.30243 4.94723H7.64152V5.62487H6.30243V4.94723ZM7.64152 5.62487H8.30351V4.94723L8.98112 4.94773V8.30319H8.30351V6.96403H7.64152V5.62487ZM12.3208 4.94723V5.62487H10.9817V8.3037H10.3197L10.3202 4.94773L12.3208 4.94723ZM5.62481 6.96403V5.62487H6.30243V6.96403H5.62481ZM12.9984 5.62487V6.96403H13.6604V7.62605H12.9984V8.96521H12.3208V5.62487H12.9984ZM13.6604 6.96403V6.28639H14.338V6.96403H13.6604ZM14.338 6.96403H15V9.64286H14.338V6.96403ZM6.96441 8.3037H6.30243V6.96403L6.96441 6.96454V8.3037ZM4.96333 8.3037H6.30243V8.96572H4.96333V8.3037ZM4.28571 10.3044V8.96521L4.96333 8.96572V10.3044H4.28571ZM6.30243 9.64286V8.96572L6.96441 8.96521V8.3037L7.64203 8.30319V10.3044H6.96441V9.64235L6.30243 9.64286ZM13.6604 9.64286H14.338V11.644H13.6604V9.64286ZM5.62481 10.3044V10.982H4.96283L4.96333 10.3044H5.62481ZM6.30243 12.3212H5.62481V10.982H6.30243V12.3212ZM12.9984 12.9832V11.644H13.6604V12.9832H12.9984ZM6.96441 12.3212V12.9832H6.30243V12.3212H6.96441ZM7.64152 12.9832V13.6608H6.96391L6.96441 12.9832H7.64152ZM12.3213 12.9827L12.9984 12.9832L12.9989 14.9995H12.3213V12.9827ZM8.30351 15H7.64152V13.6608H8.30351V15Z" fill="black"/>
</g>
</svg>
